<svg width="28" height="27" fill="none" xmlns="http://www.w3.org/2000/svg"><g clip-path="url(#a)"><path d="M13.561 26.37c1.871 0 3.389-1.472 3.389-3.288h-6.778c0 1.816 1.518 3.289 3.389 3.289Zm11.41-7.693c-1.024-1.067-2.939-2.672-2.939-7.929 0-3.993-2.886-7.19-6.777-7.974v-1.07c0-.909-.759-1.645-1.694-1.645-.935 0-1.694.736-1.694 1.644v1.071C7.976 3.56 5.09 6.755 5.09 10.748c0 5.257-1.915 6.862-2.939 7.93a1.58 1.58 0 0 0-.456 1.115 1.671 1.671 0 0 0 1.7 1.644h20.332a1.671 1.671 0 0 0 1.7-1.644 1.579 1.579 0 0 0-.456-1.116Z" fill="#000"/></g><defs><clipPath id="a"><path fill="#fff" transform="translate(0 .059)" d="M0 0h27.122v26.312H0z"/></clipPath></defs></svg>