<svg width="21" height="21" fill="none" xmlns="http://www.w3.org/2000/svg"><g clip-path="url(#a)" stroke="#fff" stroke-width="2" stroke-linecap="round" stroke-linejoin="round"><path d="M8.356 19.096c.459 0 .83-.389.83-.868 0-.48-.371-.868-.83-.868-.458 0-.83.388-.83.868s.372.868.83.868ZM17.489 19.096c.458 0 .83-.389.83-.868 0-.48-.372-.868-.83-.868-.459 0-.83.388-.83.868s.371.868.83.868ZM1.714.868h3.321L7.26 12.49c.076.4.284.759.588 1.014.303.256.683.392 1.073.384h8.07c.389.008.769-.128 1.072-.384a1.75 1.75 0 0 0 .588-1.014l1.328-7.282H5.865"/></g><defs><clipPath id="a"><path fill="#fff" transform="translate(.884)" d="M0 0h19.925v20.832H0z"/></clipPath></defs></svg>