<svg width="21" height="20" fill="none" xmlns="http://www.w3.org/2000/svg"><g clip-path="url(#a)" stroke="#fff" stroke-width="2" stroke-linecap="round" stroke-linejoin="round"><path d="M10.224 12.5a2.511 2.511 0 0 0 2.523-2.5c0-1.38-1.13-2.5-2.523-2.5-1.393 0-2.522 1.12-2.522 2.5s1.13 2.5 2.522 2.5Z"/><path d="M16.446 12.5a1.364 1.364 0 0 0 .278 1.517l.05.05a1.665 1.665 0 0 1 .493 1.179 1.653 1.653 0 0 1-.493 1.179 1.682 1.682 0 0 1-1.19.489 1.696 1.696 0 0 1-1.19-.489l-.05-.05a1.392 1.392 0 0 0-1.53-.275c-.249.106-.46.281-.61.505-.15.223-.23.485-.23.753v.142c0 .442-.178.866-.493 1.178a1.69 1.69 0 0 1-2.379 0A1.66 1.66 0 0 1 8.61 17.5v-.075a1.367 1.367 0 0 0-.259-.768 1.385 1.385 0 0 0-.65-.49 1.397 1.397 0 0 0-1.53.275l-.05.05a1.682 1.682 0 0 1-1.19.488 1.694 1.694 0 0 1-1.19-.488 1.665 1.665 0 0 1-.493-1.18 1.654 1.654 0 0 1 .494-1.179l.05-.05a1.37 1.37 0 0 0 .278-1.516 1.378 1.378 0 0 0-.51-.605 1.397 1.397 0 0 0-.76-.229h-.143a1.69 1.69 0 0 1-1.19-.488 1.66 1.66 0 0 1 0-2.357 1.69 1.69 0 0 1 1.19-.488h.076c.278-.006.548-.096.774-.256.227-.16.4-.385.495-.644a1.364 1.364 0 0 0-.277-1.517l-.05-.05a1.666 1.666 0 0 1-.494-1.179 1.654 1.654 0 0 1 .493-1.179 1.683 1.683 0 0 1 1.19-.489 1.695 1.695 0 0 1 1.19.489l.05.05a1.392 1.392 0 0 0 1.53.275h.068c.248-.106.46-.281.61-.505.15-.223.23-.485.23-.753V2.5c0-.442.178-.866.493-1.179a1.69 1.69 0 0 1 2.378 0c.316.313.493.737.493 1.179v.075c0 .268.081.53.23.754.15.223.362.399.61.504a1.399 1.399 0 0 0 1.53-.275l.051-.05a1.681 1.681 0 0 1 1.19-.488 1.695 1.695 0 0 1 1.19.488 1.668 1.668 0 0 1 .493 1.18 1.654 1.654 0 0 1-.493 1.179l-.05.05a1.37 1.37 0 0 0-.278 1.516V7.5a1.396 1.396 0 0 0 1.27.833h.142c.447 0 .874.176 1.19.488a1.66 1.66 0 0 1 0 2.357 1.69 1.69 0 0 1-1.19.489h-.075c-.27 0-.535.08-.76.228a1.378 1.378 0 0 0-.51.605v0Z"/></g><defs><clipPath id="a"><path fill="#fff" transform="translate(.135)" d="M0 0h20.179v20H0z"/></clipPath></defs></svg>