<svg width="18" height="17" fill="none" xmlns="http://www.w3.org/2000/svg"><path d="m.944 7.618 3.303 3.04-.781 4.294M.944 7.618l15.56-1.612c.818.112 1.146 1.066.552 1.612l-3.303 3.04.781 4.294M.944 7.618c-.594-.546-.266-1.5.553-1.612L.944 7.618Zm2.522 7.334c-.14.776.725 1.357 1.45.994L9 13.92l4.085 2.027c.724.36 1.59-.218 1.45-.994m-11.07 0 .493.09v-.001m-.492-.09 5.08-13.25-2.04 3.908-.12.229-.255.035-4.566.628c-.442.061-.534.518-.283.748l3.304 3.04.202.187-.05.271-.78 4.294m10.576-.09-.491.09m.492-.09-.492.09-.782-4.294-.049-.271.203-.186 3.303-3.04c.251-.231.16-.688-.283-.749l-4.566-.628-.255-.035-.12-.23-2.04-3.906 4.588 13.339m0 0c.03.167-.04.32-.189.42a.54.54 0 0 1-.546.037l-4.085-2.027L9 13.36l-.222.11-4.085 2.027-.001.001a.535.535 0 0 1-.545-.036.41.41 0 0 1-.19-.422m10.086 0H3.957m4.588-13.34c.18-.342.727-.343.908 0h-.908Z" stroke="#FFD333"/></svg>